<svg xmlns="http://www.w3.org/2000/svg" width="300" height="298.667" viewBox="0 0 225 224" preserveAspectRatio="xMidYMid meet" xmlns:v="https://vecta.io/nano"><path d="M51.3 48.8L20 64.5v62.7V190h62 62l31.5-15.7 31.5-15.8V95.8 33l-62.2.1H82.5L51.3 48.8zm122.7.7l-28.5 14.4h-31.2L83 64V49.5 35l59.8.1h59.7L174 49.5zM206 96v61h-30.5H145l.2-45.8.3-45.7 30-15.2L205.8 35c.1 0 .2 27.4.2 61zM82 50v14l-28.7-.1H24.5L52 50c15.1-7.6 28.1-13.9 28.8-13.9.9-.1 1.2 3.3 1.2 13.9zm0 61.8v45.7l-30.5 15.3L21 188v-61-61h30.5H82v45.8zm62-.3V157h-30.5H83v-45.5V66h30.5H144v45.5zm0 62V188l-59.7-.1H24.5L53 173.5l28.5-14.4h31.3l31.2-.1v14.5zm57.9-14.1c-.2.2-13.1 6.7-28.6 14.5L145 188v-14.5V159h28.7l28.2.4z"/></svg>